<?xml version="1.0" encoding="UTF-8"?>
<svg id="Layer_1" xmlns="http://www.w3.org/2000/svg" version="1.1" viewBox="0 0 116.4 33.4">
  <!-- Generator: Adobe Illustrator 29.3.1, SVG Export Plug-In . SVG Version: 2.1.0 Build 151)  -->
  <defs>
    <style>
      .st0 {
        fill: #fff;
      }
    </style>
  </defs>
  <g>
    <path class="st0" d="M0,33.4h110.5V0H0v33.4ZM.9,1h30.1v23.6H.9V1ZM97.2,32.5H.9v-7h96.3v7ZM109.6,32.5h-11.5v-7h11.5v7ZM109.6,24.6H31.9V1h77.6v23.6h0Z"/>
    <path class="st0" d="M113.9,28c1.4,0,2.4,1.1,2.4,2.5s-1.1,2.5-2.4,2.5-2.5-1.1-2.5-2.5,1.1-2.5,2.5-2.5ZM113.9,28.4c-1.1,0-2,.9-2,2.1s.9,2.1,2,2.1,2-.9,2-2.1-.9-2.1-2-2.1ZM113.4,31.9h-.4v-2.8h.8s.7,0,.9.2c.2.1.3.3.3.6s-.2.6-.5.7c.2,0,.4.3.5.7,0,.4,0,.6.2.7h-.5s0-.3-.2-.7c0-.4-.2-.5-.6-.5h-.3v1.2h-.2ZM113.4,30.4h.3c.4,0,.7-.1.7-.5s-.2-.5-.7-.5-.2,0-.3,0v.9h0Z"/>
    <path class="st0" d="M103.8,26.9c-2.8,0-5,1-5,2.3s2.2,2.3,5,2.3,5-1,5-2.3-2.2-2.3-5-2.3M108.4,29h-.9c0-.5-.4-1-1-1.4,1.1.3,1.8.8,1.9,1.4M107.2,29h-1.2c0-.6-.3-1.2-.8-1.6,1.1.3,1.9.9,2,1.6M103.8,31.1c-1.1,0-1.9-.9-1.9-1.9s.9-1.9,1.9-1.9,1.9.9,1.9,1.9-.9,1.9-1.9,1.9M101.5,29h-1.2c0-.7.9-1.3,2-1.6-.5.4-.8,1-.8,1.6M101,27.6c-.6.4-1,.9-1,1.4h-.9c0-.6.9-1.1,1.9-1.4M99.1,29.4h.9c0,.5.4,1,1,1.4-1.1-.3-1.8-.8-1.9-1.4M100.4,29.4h1.2c0,.6.4,1.2.8,1.6-1.1-.3-1.8-.9-2-1.6M106,29.4h1.2c0,.7-.9,1.3-2,1.6.5-.4.8-.9.8-1.6M106.5,30.8c.6-.4.9-.8,1-1.4h.9c0,.6-.9,1.1-1.9,1.4"/>
    <path class="st0" d="M103.5,29.2c0-.1,0-.3.3-.3s.3.1.3.3,0,.3-.3.3-.3-.1-.3-.3"/>
    <path class="st0" d="M103.8,28l.4-.4c-.2-.2-.5-.2-.7,0l.4.4h-.1Z"/>
    <path class="st0" d="M104,28.5c0-.3.2-.5.5-.5s.5.2.5.5-.2.5-.5.5-.5-.2-.5-.5"/>
    <path class="st0" d="M102.5,28.5c0-.3.2-.5.5-.5s.5.2.5.5-.2.5-.5.5-.5-.2-.5-.5"/>
    <path class="st0" d="M102.5,30c0-.3.2-.5.5-.5s.5.2.5.5-.2.5-.5.5-.5-.2-.5-.5"/>
    <path class="st0" d="M104,30c0-.3.2-.5.5-.5s.5.2.5.5-.2.5-.5.5-.5-.2-.5-.5"/>
    <path class="st0" d="M103.8,30.4l-.4.4c.2.2.5.2.7,0l-.4-.4h.1Z"/>
    <path class="st0" d="M104.9,29.2l.4.4c.2-.2.2-.5,0-.7l-.4.4h0Z"/>
    <path class="st0" d="M102.6,29.2l-.4.4c-.2-.2-.2-.5,0-.7l.4.4h0Z"/>
    <path class="st0" d="M29.6,30.9h-1l-.2-.9h-1.3l-.2.9h-.8l1.2-4.2h1.1l1.2,4.2ZM28.2,29.3l-.4-1.5-.4,1.5h.8Z"/>
    <path class="st0" d="M30,26.7h.8v4.2h-.8v-4.2Z"/>
    <path class="st0" d="M31.5,26.7h.8v4.2h-.8v-4.2Z"/>
    <path class="st0" d="M38,30.9h-1l-.2-.9h-1.3l-.2.9h-.8l1.2-4.2h1.1l1.2,4.2ZM36.5,29.3l-.4-1.5-.4,1.5h.8Z"/>
    <path class="st0" d="M39.6,27.7c.3,0,.5,0,.8.1,0-.5.2-.6.6-.6s.2,0,.2,0v.6h-.2c-.2,0-.3,0-.3.3.2.2.2.3.2.6,0,.7-.7.9-1.3.9s-.3,0-.5,0c0,0,0,.1,0,.2s0,.2.2.2h1c.5,0,1.1.2,1.1.8s-.3.7-.6.8-.7.2-1.1.2-1.5,0-1.5-.7.2-.5.5-.6c-.2-.1-.4-.3-.4-.6s.3-.6.6-.7c-.3-.1-.5-.4-.5-.8,0-.8.8-1,1.3-1M40.1,30.9h-1.1c0,0-.2.1-.2.2s0,.2.2.2h.6s.8,0,.8-.3-.2-.2-.3-.2M39.1,28.7c0,.3.2.5.5.5s.5-.2.5-.5-.2-.5-.5-.5-.5.2-.5.5"/>
    <path class="st0" d="M42.3,29.5v.2c0,.4.2.7.5.7s.5-.2.5-.5h.8c0,.2-.3,1.1-1.3,1.1s-1.4-.6-1.4-1.6.5-1.7,1.4-1.7.8.2,1.1.5c.2.4.3.8.3,1.2h-1.9ZM43.3,29c0-.3,0-.6-.5-.6s-.5.3-.5.6h1Z"/>
    <path class="st0" d="M46.2,28.7c0-.3-.3-.4-.6-.4s-.4,0-.4.3c0,.6,1.7,0,1.7,1.3s0,.6-.4.8-.6.3-.9.3c-.6,0-1.2-.2-1.3-.9h.7c0,.2.4.3.6.3s.5,0,.5-.3-.2-.2-.3-.3c-.2,0-.7-.1-.9-.2-.3-.1-.6-.4-.6-.8,0-.8.6-1,1.2-1s.9.2,1.1.8l-.6.2h.2Z"/>
    <path class="st0" d="M52.4,30.9h-1l-.2-.9h-1.3l-.2.9h-.8l1.2-4.2h1.1l1.2,4.2ZM51,29.3l-.4-1.5-.4,1.5h.8Z"/>
    <path class="st0" d="M54.5,30.9v-.5c-.2.3-.4.5-.8.5-.8,0-1-.9-1-1.6s.2-1.6,1.1-1.6.5.1.7.4v-1.4h.8v4.2h-.8ZM54.5,29.2c0-.3,0-.8-.4-.8s-.5.7-.5,1,0,.9.5.9.3-.1.4-.3v-.9h0Z"/>
    <path class="st0" d="M56.7,27.8v.5c0-.4.4-.5.8-.5s.6.2.8.5c0-.4.5-.5.8-.5s.5,0,.7.3c.2.2.2.6.2.9v1.9h-.8v-2.1c0-.2-.2-.3-.4-.3s-.3,0-.4.2v2.2h-.8v-1.6c0-.3,0-.8-.4-.8s-.4.5-.4.8v1.6h-.8v-3.1h.8,0Z"/>
    <path class="st0" d="M61.4,27.5h-.8v-.9h.8v.9ZM61.4,30.9h-.8v-3.1h.8v3.1Z"/>
    <path class="st0" d="M63.7,28.5h-.6v1.2c0,.4,0,.5.4.5s.2,0,.3,0v.7h-.5c-.2,0-.6,0-.7-.2-.2-.2-.2-.6-.2-.9v-1.4h-.5v-.7h.5v-.9h.8v1h.6v.7h0Z"/>
    <path class="st0" d="M65.9,28.5h-.6v1.2c0,.4,0,.5.4.5s.2,0,.3,0v.7h-.5c-.2,0-.6,0-.7-.2-.2-.2-.2-.6-.2-.9v-1.4h-.5v-.7h.5v-.9h.8v1h.6v.7h-.1Z"/>
    <path class="st0" d="M67.1,29.5v.2c0,.4.2.7.5.7s.5-.2.5-.5h.8c0,.2-.3,1.1-1.3,1.1s-1.4-.6-1.4-1.6.5-1.7,1.4-1.7.8.2,1.1.5c.2.4.3.8.3,1.2h-1.9ZM68.1,29c0-.3,0-.6-.5-.6s-.5.3-.5.6h1Z"/>
    <path class="st0" d="M71.1,30.9v-.5c-.2.3-.4.5-.8.5-.8,0-1-.9-1-1.6s.2-1.6,1.1-1.6.5.1.7.4v-1.4h.8v4.2h-.8ZM71.1,29.2c0-.3,0-.8-.4-.8s-.5.7-.5,1,0,.9.5.9.3-.1.4-.3v-.9h0Z"/>
    <path class="st0" d="M19.6,16c-.2-.7-.8-.7-1.7-1-1.8-.2-2.2-1.7-.2-1.8h8.9c1.8,0,2.2,1.2,0,1.8-.6.1-1.5.6-1.5,1.7v4s-1,2.3-10.3,2.1c-5.7-.1-9.8-.3-10-9.1C4.8,2.2,12.5,3.5,15.5,3.3c4.3,0,6.5.6,7.8,1,1.9.6,2,1.5,2,3.1s-.3,3-2.3,3.1c-2.7.2-2.9-.9-3.1-1.9-.4-2.9-.6-3.1-4-3.1-5,0-5.5,2.4-5.4,7.9,0,4.1.2,7.1,5,7.1s4-.2,4-1.9c0,0,.1-1.6,0-2.4"/>
  </g>
  <g>
    <path class="st0" d="M45.5,15.9h-1.5l-.6-1.9h-3.1l-.6,1.9h-1.2l2.7-8h1.8l2.7,8ZM42.9,12.9l-1.2-3.6-1.2,3.6h2.3Z"/>
    <path class="st0" d="M47.9,15.9h-1.4v-8h3.3c.9,0,1.6.2,2.1.7s.7,1,.7,1.7-.2,1.3-.7,1.8-1.1.7-1.9.7h-2v3.2ZM47.9,11.5h1.7c.4,0,.8-.1,1-.3s.4-.5.4-.9-.1-.6-.3-.8-.6-.4-1.2-.4h-1.6v2.4Z"/>
    <path class="st0" d="M55.1,15.9h-1.4v-8h3.3c.9,0,1.6.2,2.1.7s.7,1,.7,1.7-.2,1.3-.7,1.8-1.1.7-1.9.7h-2v3.2ZM55.1,11.5h1.7c.4,0,.8-.1,1-.3s.4-.5.4-.9-.1-.6-.3-.8-.6-.4-1.2-.4h-1.6v2.4Z"/>
    <path class="st0" d="M65.8,15.9h-4.9v-8h1.5v6.7h3.4v1.3Z"/>
    <path class="st0" d="M69.1,15.9h-1.5v-3.4l-2.7-4.6h1.7l1.9,3.3,1.8-3.3h1.4l-2.6,4.6v3.4Z"/>
    <path class="st0" d="M81.4,15.9h-1.4v-3.5h-3.1v3.5h-1.4v-8h1.4v3.3h3.1v-3.3h1.4v8Z"/>
    <path class="st0" d="M88.3,15.9h-5.2v-8h5.1v1.2h-3.7v2.2h3v1.2h-3v2.2h3.8v1.2Z"/>
    <path class="st0" d="M95.8,15.9h-1.5l-1.2-3.3h-2v3.3h-1.4v-8h3.5c1,0,1.7.2,2.1.7s.7,1,.7,1.7c0,1-.5,1.7-1.4,2.1l1.4,3.5ZM91,11.5h1.8c.5,0,.9-.1,1.2-.3s.4-.5.4-.9-.1-.6-.4-.9-.6-.3-1-.3h-1.9v2.4Z"/>
    <path class="st0" d="M102.5,15.9h-5.2v-8h5.1v1.2h-3.7v2.2h3v1.2h-3v2.2h3.8v1.2Z"/>
  </g>
</svg>